<svg width="164" height="48" viewBox="0 0 164 48" fill="none" xmlns="http://www.w3.org/2000/svg">
<path fill-rule="evenodd" clip-rule="evenodd" d="M16.1746 28.4933L20.7434 33.0621C23.5238 35.8425 28.0316 35.8425 30.812 33.0621C31.7289 32.1452 32.3435 31.0403 32.6556 29.8715L35.8462 33.0621C38.6266 35.8425 43.1344 35.8425 45.9147 33.0621C48.6951 30.2818 48.6951 25.774 45.9147 22.9936L35.8462 12.9251C33.0659 10.1448 28.558 10.1448 25.7777 12.9251C24.8607 13.8421 24.2462 14.9469 23.9341 16.1157L20.7434 12.9251C17.9631 10.1448 13.4553 10.1448 10.6749 12.9251L2.38936 21.2107C-0.796453 24.3965 -0.796453 29.5617 2.38936 32.7475C5.57517 35.9333 10.7404 35.9333 13.9262 32.7475C15.1322 31.5415 15.8817 30.0519 16.1746 28.4933ZM18.2263 15.4422C16.8361 14.0521 14.5822 14.0521 13.192 15.4422C11.8025 16.8318 11.8019 19.0844 13.1903 20.4747L23.2606 30.545C24.6507 31.9352 26.9047 31.9352 28.2948 30.545C29.6843 29.1556 29.685 26.9033 28.297 25.513L18.2263 15.4422ZM11.4091 23.7278L8.15778 20.4765L4.90649 23.7278C3.11085 25.5234 3.11085 28.4347 4.90649 30.2304C6.70213 32.026 9.61344 32.026 11.4091 30.2304C13.2047 28.4347 13.2047 25.5234 11.4091 23.7278ZM28.2919 20.4735C26.9047 19.0831 26.9056 16.8314 28.2948 15.4422C29.685 14.0521 31.9389 14.0521 33.3291 15.4422L43.3976 25.5108C44.7878 26.9009 44.7878 29.1548 43.3976 30.545C42.0074 31.9352 39.7535 31.9352 38.3634 30.545L28.2919 20.4735Z" fill="#DD2590"/>
<path d="M57.517 15.5455H62.0682L66.875 27.2727H67.0795L71.8864 15.5455H76.4375V33H72.858V21.6392H72.7131L68.196 32.9148H65.7585L61.2415 21.5966H61.0966V33H57.517V15.5455ZM83.1428 33.2472C82.3075 33.2472 81.5632 33.1023 80.9098 32.8125C80.2564 32.517 79.7393 32.0824 79.3587 31.5085C78.9837 30.929 78.7962 30.2074 78.7962 29.3438C78.7962 28.6165 78.9297 28.0057 79.1967 27.5114C79.4638 27.017 79.8274 26.6193 80.2876 26.3182C80.7479 26.017 81.2706 25.7898 81.8558 25.6364C82.4467 25.483 83.0661 25.375 83.7138 25.3125C84.4751 25.233 85.0888 25.1591 85.5547 25.0909C86.0206 25.017 86.3587 24.9091 86.5689 24.767C86.7791 24.625 86.8842 24.4148 86.8842 24.1364V24.0852C86.8842 23.5455 86.7138 23.1278 86.3729 22.8324C86.0376 22.5369 85.5604 22.3892 84.9411 22.3892C84.2876 22.3892 83.7678 22.5341 83.3814 22.8239C82.995 23.108 82.7393 23.4659 82.6143 23.8977L79.2564 23.625C79.4268 22.8295 79.7621 22.142 80.2621 21.5625C80.7621 20.9773 81.407 20.5284 82.1967 20.2159C82.9922 19.8977 83.9126 19.7386 84.9581 19.7386C85.6854 19.7386 86.3814 19.8239 87.0462 19.9943C87.7166 20.1648 88.3104 20.429 88.8274 20.7869C89.3501 21.1449 89.7621 21.6051 90.0632 22.1676C90.3643 22.7244 90.5149 23.392 90.5149 24.1705V33H87.0717V31.1847H86.9695C86.7592 31.5938 86.478 31.9545 86.1257 32.267C85.7734 32.5739 85.3501 32.8153 84.8558 32.9915C84.3615 33.1619 83.7905 33.2472 83.1428 33.2472ZM84.1825 30.7415C84.7166 30.7415 85.1882 30.6364 85.5973 30.4261C86.0064 30.2102 86.3274 29.9205 86.5604 29.5568C86.7933 29.1932 86.9098 28.7812 86.9098 28.321V26.9318C86.7962 27.0057 86.6399 27.0739 86.4411 27.1364C86.2479 27.1932 86.0291 27.2472 85.7848 27.2983C85.5405 27.3437 85.2962 27.3864 85.0518 27.4261C84.8075 27.4602 84.5859 27.4915 84.3871 27.5199C83.9609 27.5824 83.5888 27.6818 83.2706 27.8182C82.9524 27.9545 82.7053 28.1392 82.5291 28.3722C82.353 28.5994 82.2649 28.8835 82.2649 29.2244C82.2649 29.7188 82.4439 30.0966 82.8018 30.358C83.1655 30.6136 83.6257 30.7415 84.1825 30.7415ZM99.2294 38.1818C98.0533 38.1818 97.0447 38.0199 96.2038 37.696C95.3686 37.3778 94.7038 36.9432 94.2095 36.392C93.7152 35.8409 93.3942 35.2216 93.2464 34.5341L96.6044 34.0824C96.7067 34.3438 96.8686 34.5881 97.0902 34.8153C97.3118 35.0426 97.6044 35.2244 97.968 35.3608C98.3374 35.5028 98.7862 35.5739 99.3146 35.5739C100.104 35.5739 100.755 35.3807 101.266 34.9943C101.783 34.6136 102.042 33.9744 102.042 33.0767V30.6818H101.888C101.729 31.0455 101.491 31.3892 101.173 31.7131C100.854 32.0369 100.445 32.3011 99.9453 32.5057C99.4453 32.7102 98.8487 32.8125 98.1555 32.8125C97.1726 32.8125 96.2777 32.5852 95.4709 32.1307C94.6697 31.6705 94.0305 30.9687 93.5533 30.0256C93.0817 29.0767 92.8459 27.8778 92.8459 26.429C92.8459 24.946 93.0874 23.7074 93.5703 22.7131C94.0533 21.7187 94.6953 20.9744 95.4964 20.4801C96.3033 19.9858 97.1868 19.7386 98.147 19.7386C98.88 19.7386 99.4936 19.8636 99.9879 20.1136C100.482 20.358 100.88 20.6648 101.181 21.0341C101.488 21.3977 101.724 21.7557 101.888 22.108H102.025V19.9091H105.63V33.1278C105.63 34.2415 105.357 35.1733 104.812 35.9233C104.266 36.6733 103.511 37.2358 102.545 37.6108C101.585 37.9915 100.479 38.1818 99.2294 38.1818ZM99.3061 30.0852C99.8913 30.0852 100.386 29.9403 100.789 29.6506C101.198 29.3551 101.511 28.9347 101.727 28.3892C101.948 27.8381 102.059 27.179 102.059 26.4119C102.059 25.6449 101.951 24.9801 101.735 24.4176C101.519 23.8494 101.207 23.4091 100.798 23.0966C100.388 22.7841 99.8913 22.6278 99.3061 22.6278C98.7095 22.6278 98.2067 22.7898 97.7976 23.1136C97.3885 23.4318 97.0788 23.875 96.8686 24.4432C96.6584 25.0114 96.5533 25.6676 96.5533 26.4119C96.5533 27.1676 96.6584 27.821 96.8686 28.3722C97.0845 28.9176 97.3942 29.3409 97.7976 29.642C98.2067 29.9375 98.7095 30.0852 99.3061 30.0852ZM112.15 25.4318V33H108.519V19.9091H111.979V22.2188H112.133C112.423 21.4574 112.908 20.8551 113.59 20.4119C114.272 19.9631 115.099 19.7386 116.07 19.7386C116.979 19.7386 117.772 19.9375 118.448 20.3352C119.124 20.733 119.65 21.3011 120.025 22.0398C120.4 22.7727 120.587 23.6477 120.587 24.6648V33H116.957V25.3125C116.962 24.5114 116.758 23.8864 116.343 23.4375C115.928 22.983 115.357 22.7557 114.63 22.7557C114.141 22.7557 113.71 22.8608 113.335 23.071C112.965 23.2812 112.675 23.5881 112.465 23.9915C112.261 24.3892 112.156 24.8693 112.15 25.4318ZM129.364 33.2557C128.04 33.2557 126.895 32.9744 125.929 32.4119C124.969 31.8437 124.227 31.054 123.705 30.0426C123.182 29.0256 122.92 27.8466 122.92 26.5057C122.92 25.1534 123.182 23.9716 123.705 22.9602C124.227 21.9432 124.969 21.1534 125.929 20.5909C126.895 20.0227 128.04 19.7386 129.364 19.7386C130.688 19.7386 131.83 20.0227 132.79 20.5909C133.756 21.1534 134.5 21.9432 135.023 22.9602C135.545 23.9716 135.807 25.1534 135.807 26.5057C135.807 27.8466 135.545 29.0256 135.023 30.0426C134.5 31.054 133.756 31.8437 132.79 32.4119C131.83 32.9744 130.688 33.2557 129.364 33.2557ZM129.381 30.4432C129.983 30.4432 130.486 30.2727 130.889 29.9318C131.293 29.5852 131.597 29.1136 131.801 28.517C132.011 27.9205 132.116 27.2415 132.116 26.4801C132.116 25.7188 132.011 25.0398 131.801 24.4432C131.597 23.8466 131.293 23.375 130.889 23.0284C130.486 22.6818 129.983 22.5085 129.381 22.5085C128.773 22.5085 128.261 22.6818 127.847 23.0284C127.438 23.375 127.128 23.8466 126.918 24.4432C126.713 25.0398 126.611 25.7188 126.611 26.4801C126.611 27.2415 126.713 27.9205 126.918 28.517C127.128 29.1136 127.438 29.5852 127.847 29.9318C128.261 30.2727 128.773 30.4432 129.381 30.4432ZM141.798 15.5455V33H138.168V15.5455H141.798ZM144.707 33V19.9091H148.337V33H144.707ZM146.531 18.2216C145.991 18.2216 145.528 18.0426 145.141 17.6847C144.761 17.321 144.57 16.8864 144.57 16.3807C144.57 15.8807 144.761 15.4517 145.141 15.0938C145.528 14.7301 145.991 14.5483 146.531 14.5483C147.07 14.5483 147.531 14.7301 147.911 15.0938C148.298 15.4517 148.491 15.8807 148.491 16.3807C148.491 16.8864 148.298 17.321 147.911 17.6847C147.531 18.0426 147.07 18.2216 146.531 18.2216ZM154.979 33.2472C154.143 33.2472 153.399 33.1023 152.746 32.8125C152.092 32.517 151.575 32.0824 151.195 31.5085C150.82 30.929 150.632 30.2074 150.632 29.3438C150.632 28.6165 150.766 28.0057 151.033 27.5114C151.3 27.017 151.663 26.6193 152.124 26.3182C152.584 26.017 153.107 25.7898 153.692 25.6364C154.283 25.483 154.902 25.375 155.55 25.3125C156.311 25.233 156.925 25.1591 157.391 25.0909C157.857 25.017 158.195 24.9091 158.405 24.767C158.615 24.625 158.72 24.4148 158.72 24.1364V24.0852C158.72 23.5455 158.55 23.1278 158.209 22.8324C157.874 22.5369 157.396 22.3892 156.777 22.3892C156.124 22.3892 155.604 22.5341 155.217 22.8239C154.831 23.108 154.575 23.4659 154.45 23.8977L151.092 23.625C151.263 22.8295 151.598 22.142 152.098 21.5625C152.598 20.9773 153.243 20.5284 154.033 20.2159C154.828 19.8977 155.749 19.7386 156.794 19.7386C157.521 19.7386 158.217 19.8239 158.882 19.9943C159.553 20.1648 160.146 20.429 160.663 20.7869C161.186 21.1449 161.598 21.6051 161.899 22.1676C162.2 22.7244 162.351 23.392 162.351 24.1705V33H158.908V31.1847H158.805C158.595 31.5938 158.314 31.9545 157.962 32.267C157.609 32.5739 157.186 32.8153 156.692 32.9915C156.197 33.1619 155.626 33.2472 154.979 33.2472ZM156.018 30.7415C156.553 30.7415 157.024 30.6364 157.433 30.4261C157.842 30.2102 158.163 29.9205 158.396 29.5568C158.629 29.1932 158.746 28.7812 158.746 28.321V26.9318C158.632 27.0057 158.476 27.0739 158.277 27.1364C158.084 27.1932 157.865 27.2472 157.621 27.2983C157.376 27.3437 157.132 27.3864 156.888 27.4261C156.643 27.4602 156.422 27.4915 156.223 27.5199C155.797 27.5824 155.425 27.6818 155.107 27.8182C154.788 27.9545 154.541 28.1392 154.365 28.3722C154.189 28.5994 154.101 28.8835 154.101 29.2244C154.101 29.7188 154.28 30.0966 154.638 30.358C155.001 30.6136 155.462 30.7415 156.018 30.7415Z" fill="white"/>
</svg>
