<svg width="167" height="48" viewBox="0 0 167 48" fill="none" xmlns="http://www.w3.org/2000/svg">
<rect y="4" width="10" height="10" fill="#155EEF"/>
<rect opacity="0.6" x="20" y="4" width="10" height="10" fill="#155EEF"/>
<rect opacity="0.6" x="10" y="14" width="10" height="10" fill="#155EEF"/>
<rect opacity="0.45" x="20" y="14" width="10" height="10" fill="#155EEF"/>
<rect opacity="0.3" x="30" y="14" width="10" height="10" fill="#155EEF"/>
<rect opacity="0.6" y="24" width="10" height="10" fill="#155EEF"/>
<rect opacity="0.45" x="10" y="24" width="10" height="10" fill="#155EEF"/>
<rect opacity="0.3" x="20" y="24" width="10" height="10" fill="#155EEF"/>
<rect opacity="0.15" x="30" y="24" width="10" height="10" fill="#155EEF"/>
<rect opacity="0.3" x="10" y="34" width="10" height="10" fill="#155EEF"/>
<rect opacity="0.15" x="20" y="34" width="10" height="10" fill="#155EEF"/>
<path d="M65.5568 24.2727C65.5568 26.1761 65.196 27.7955 64.4744 29.1307C63.7585 30.4659 62.7813 31.4858 61.5426 32.1903C60.3097 32.8892 58.9233 33.2386 57.3835 33.2386C55.8324 33.2386 54.4403 32.8864 53.2074 32.1818C51.9744 31.4773 51 30.4574 50.2841 29.1222C49.5682 27.7869 49.2102 26.1705 49.2102 24.2727C49.2102 22.3693 49.5682 20.75 50.2841 19.4148C51 18.0795 51.9744 17.0625 53.2074 16.3636C54.4403 15.6591 55.8324 15.3068 57.3835 15.3068C58.9233 15.3068 60.3097 15.6591 61.5426 16.3636C62.7813 17.0625 63.7585 18.0795 64.4744 19.4148C65.196 20.75 65.5568 22.3693 65.5568 24.2727ZM61.8153 24.2727C61.8153 23.0398 61.6307 22 61.2614 21.1534C60.8977 20.3068 60.3835 19.6648 59.7188 19.2273C59.054 18.7898 58.2756 18.571 57.3835 18.571C56.4915 18.571 55.7131 18.7898 55.0483 19.2273C54.3835 19.6648 53.8665 20.3068 53.4972 21.1534C53.1335 22 52.9517 23.0398 52.9517 24.2727C52.9517 25.5057 53.1335 26.5455 53.4972 27.392C53.8665 28.2386 54.3835 28.8807 55.0483 29.3182C55.7131 29.7557 56.4915 29.9744 57.3835 29.9744C58.2756 29.9744 59.054 29.7557 59.7188 29.3182C60.3835 28.8807 60.8977 28.2386 61.2614 27.392C61.6307 26.5455 61.8153 25.5057 61.8153 24.2727ZM73.0462 33.2131C72.0518 33.2131 71.1513 32.9574 70.3445 32.446C69.5433 31.929 68.907 31.1705 68.4354 30.1705C67.9695 29.1648 67.7365 27.9318 67.7365 26.4716C67.7365 24.9716 67.978 23.7244 68.4609 22.7301C68.9439 21.7301 69.5859 20.983 70.3871 20.4886C71.1939 19.9886 72.0774 19.7386 73.0376 19.7386C73.7706 19.7386 74.3814 19.8636 74.87 20.1136C75.3643 20.358 75.7621 20.6648 76.0632 21.0341C76.37 21.3977 76.603 21.7557 76.7621 22.108H76.8729V15.5455H80.495V33H76.9155V30.9034H76.7621C76.5916 31.267 76.3501 31.6278 76.0376 31.9858C75.7308 32.3381 75.3303 32.6307 74.8359 32.8636C74.3473 33.0966 73.7507 33.2131 73.0462 33.2131ZM74.1967 30.3239C74.782 30.3239 75.2763 30.1648 75.6797 29.8466C76.0888 29.5227 76.4013 29.071 76.6172 28.4915C76.8388 27.9119 76.9496 27.233 76.9496 26.4545C76.9496 25.6761 76.8416 25 76.6257 24.4261C76.4098 23.8523 76.0973 23.4091 75.6882 23.0966C75.2791 22.7841 74.782 22.6278 74.1967 22.6278C73.6001 22.6278 73.0973 22.7898 72.6882 23.1136C72.2791 23.4375 71.9695 23.8864 71.7592 24.4602C71.549 25.0341 71.4439 25.6989 71.4439 26.4545C71.4439 27.2159 71.549 27.8892 71.7592 28.4744C71.9751 29.054 72.2848 29.5085 72.6882 29.8381C73.0973 30.1619 73.6001 30.3239 74.1967 30.3239ZM89.446 33.2557C88.0994 33.2557 86.9403 32.983 85.9688 32.4375C85.0028 31.8864 84.2585 31.108 83.7358 30.1023C83.2131 29.0909 82.9517 27.8949 82.9517 26.5142C82.9517 25.1676 83.2131 23.9858 83.7358 22.9688C84.2585 21.9517 84.9943 21.1591 85.9432 20.5909C86.8977 20.0227 88.017 19.7386 89.3011 19.7386C90.1648 19.7386 90.9688 19.8778 91.7131 20.1562C92.4631 20.429 93.1165 20.8409 93.6733 21.392C94.2358 21.9432 94.6733 22.6364 94.9858 23.4716C95.2983 24.3011 95.4545 25.2727 95.4545 26.3864V27.3835H84.4006V25.1335H92.0369C92.0369 24.6108 91.9233 24.1477 91.696 23.7443C91.4688 23.3409 91.1534 23.0256 90.75 22.7983C90.3523 22.5653 89.8892 22.4489 89.3608 22.4489C88.8097 22.4489 88.321 22.5767 87.8949 22.8324C87.4744 23.0824 87.1449 23.4205 86.9062 23.8466C86.6676 24.267 86.5455 24.7358 86.5398 25.2528V27.392C86.5398 28.0398 86.6591 28.5994 86.8977 29.071C87.142 29.5426 87.4858 29.9062 87.929 30.1619C88.3722 30.4176 88.8977 30.5455 89.5057 30.5455C89.9091 30.5455 90.2784 30.4886 90.6136 30.375C90.9489 30.2614 91.2358 30.0909 91.4744 29.8636C91.7131 29.6364 91.8949 29.358 92.0199 29.0284L95.3778 29.25C95.2074 30.0568 94.858 30.7614 94.3295 31.3636C93.8068 31.9602 93.1307 32.4261 92.3011 32.7614C91.4773 33.0909 90.5256 33.2557 89.446 33.2557ZM101.557 33.2472C100.722 33.2472 99.9773 33.1023 99.3239 32.8125C98.6705 32.517 98.1534 32.0824 97.7727 31.5085C97.3977 30.929 97.2102 30.2074 97.2102 29.3438C97.2102 28.6165 97.3438 28.0057 97.6108 27.5114C97.8778 27.017 98.2415 26.6193 98.7017 26.3182C99.1619 26.017 99.6847 25.7898 100.27 25.6364C100.861 25.483 101.48 25.375 102.128 25.3125C102.889 25.233 103.503 25.1591 103.969 25.0909C104.435 25.017 104.773 24.9091 104.983 24.767C105.193 24.625 105.298 24.4148 105.298 24.1364V24.0852C105.298 23.5455 105.128 23.1278 104.787 22.8324C104.452 22.5369 103.974 22.3892 103.355 22.3892C102.702 22.3892 102.182 22.5341 101.795 22.8239C101.409 23.108 101.153 23.4659 101.028 23.8977L97.6705 23.625C97.8409 22.8295 98.1761 22.142 98.6761 21.5625C99.1761 20.9773 99.821 20.5284 100.611 20.2159C101.406 19.8977 102.327 19.7386 103.372 19.7386C104.099 19.7386 104.795 19.8239 105.46 19.9943C106.131 20.1648 106.724 20.429 107.241 20.7869C107.764 21.1449 108.176 21.6051 108.477 22.1676C108.778 22.7244 108.929 23.392 108.929 24.1705V33H105.486V31.1847H105.384C105.173 31.5938 104.892 31.9545 104.54 32.267C104.188 32.5739 103.764 32.8153 103.27 32.9915C102.776 33.1619 102.205 33.2472 101.557 33.2472ZM102.597 30.7415C103.131 30.7415 103.602 30.6364 104.011 30.4261C104.42 30.2102 104.741 29.9205 104.974 29.5568C105.207 29.1932 105.324 28.7812 105.324 28.321V26.9318C105.21 27.0057 105.054 27.0739 104.855 27.1364C104.662 27.1932 104.443 27.2472 104.199 27.2983C103.955 27.3437 103.71 27.3864 103.466 27.4261C103.222 27.4602 103 27.4915 102.801 27.5199C102.375 27.5824 102.003 27.6818 101.685 27.8182C101.366 27.9545 101.119 28.1392 100.943 28.3722C100.767 28.5994 100.679 28.8835 100.679 29.2244C100.679 29.7188 100.858 30.0966 101.216 30.358C101.58 30.6136 102.04 30.7415 102.597 30.7415ZM111.814 33V15.5455H115.504V29.9574H122.987V33H111.814ZM129.096 33.2472C128.261 33.2472 127.516 33.1023 126.863 32.8125C126.21 32.517 125.692 32.0824 125.312 31.5085C124.937 30.929 124.749 30.2074 124.749 29.3438C124.749 28.6165 124.883 28.0057 125.15 27.5114C125.417 27.017 125.781 26.6193 126.241 26.3182C126.701 26.017 127.224 25.7898 127.809 25.6364C128.4 25.483 129.019 25.375 129.667 25.3125C130.428 25.233 131.042 25.1591 131.508 25.0909C131.974 25.017 132.312 24.9091 132.522 24.767C132.732 24.625 132.837 24.4148 132.837 24.1364V24.0852C132.837 23.5455 132.667 23.1278 132.326 22.8324C131.991 22.5369 131.513 22.3892 130.894 22.3892C130.241 22.3892 129.721 22.5341 129.335 22.8239C128.948 23.108 128.692 23.4659 128.567 23.8977L125.21 23.625C125.38 22.8295 125.715 22.142 126.215 21.5625C126.715 20.9773 127.36 20.5284 128.15 20.2159C128.945 19.8977 129.866 19.7386 130.911 19.7386C131.638 19.7386 132.335 19.8239 132.999 19.9943C133.67 20.1648 134.263 20.429 134.781 20.7869C135.303 21.1449 135.715 21.6051 136.016 22.1676C136.317 22.7244 136.468 23.392 136.468 24.1705V33H133.025V31.1847H132.923C132.712 31.5938 132.431 31.9545 132.079 32.267C131.727 32.5739 131.303 32.8153 130.809 32.9915C130.315 33.1619 129.744 33.2472 129.096 33.2472ZM130.136 30.7415C130.67 30.7415 131.141 30.6364 131.55 30.4261C131.96 30.2102 132.281 29.9205 132.513 29.5568C132.746 29.1932 132.863 28.7812 132.863 28.321V26.9318C132.749 27.0057 132.593 27.0739 132.394 27.1364C132.201 27.1932 131.982 27.2472 131.738 27.2983C131.494 27.3437 131.249 27.3864 131.005 27.4261C130.761 27.4602 130.539 27.4915 130.34 27.5199C129.914 27.5824 129.542 27.6818 129.224 27.8182C128.906 27.9545 128.658 28.1392 128.482 28.3722C128.306 28.5994 128.218 28.8835 128.218 29.2244C128.218 29.7188 128.397 30.0966 128.755 30.358C129.119 30.6136 129.579 30.7415 130.136 30.7415ZM139.353 33V15.5455H142.984V22.108H143.094C143.254 21.7557 143.484 21.3977 143.785 21.0341C144.092 20.6648 144.489 20.358 144.978 20.1136C145.472 19.8636 146.086 19.7386 146.819 19.7386C147.773 19.7386 148.654 19.9886 149.461 20.4886C150.268 20.983 150.913 21.7301 151.396 22.7301C151.879 23.7244 152.12 24.9716 152.12 26.4716C152.12 27.9318 151.884 29.1648 151.413 30.1705C150.947 31.1705 150.31 31.929 149.504 32.446C148.702 32.9574 147.805 33.2131 146.81 33.2131C146.106 33.2131 145.506 33.0966 145.012 32.8636C144.523 32.6307 144.123 32.3381 143.81 31.9858C143.498 31.6278 143.259 31.267 143.094 30.9034H142.933V33H139.353ZM142.907 26.4545C142.907 27.233 143.015 27.9119 143.231 28.4915C143.447 29.071 143.759 29.5227 144.168 29.8466C144.577 30.1648 145.075 30.3239 145.66 30.3239C146.251 30.3239 146.751 30.1619 147.16 29.8381C147.569 29.5085 147.879 29.054 148.089 28.4744C148.305 27.8892 148.413 27.2159 148.413 26.4545C148.413 25.6989 148.308 25.0341 148.097 24.4602C147.887 23.8864 147.577 23.4375 147.168 23.1136C146.759 22.7898 146.256 22.6278 145.66 22.6278C145.069 22.6278 144.569 22.7841 144.16 23.0966C143.756 23.4091 143.447 23.8523 143.231 24.4261C143.015 25 142.907 25.6761 142.907 26.4545ZM165.435 23.642L162.111 23.8466C162.054 23.5625 161.932 23.3068 161.744 23.0795C161.557 22.8466 161.31 22.6619 161.003 22.5256C160.702 22.3835 160.341 22.3125 159.92 22.3125C159.358 22.3125 158.884 22.4318 158.497 22.6705C158.111 22.9034 157.918 23.2159 157.918 23.608C157.918 23.9205 158.043 24.1847 158.293 24.4006C158.543 24.6165 158.972 24.7898 159.58 24.9205L161.949 25.3977C163.222 25.6591 164.17 26.0795 164.795 26.6591C165.42 27.2386 165.733 28 165.733 28.9432C165.733 29.8011 165.48 30.554 164.974 31.2017C164.474 31.8494 163.787 32.3551 162.912 32.7188C162.043 33.0767 161.04 33.2557 159.903 33.2557C158.17 33.2557 156.79 32.8949 155.761 32.1733C154.739 31.446 154.139 30.4574 153.963 29.2074L157.534 29.0199C157.642 29.5483 157.903 29.9517 158.318 30.2301C158.733 30.5028 159.264 30.6392 159.912 30.6392C160.548 30.6392 161.06 30.517 161.446 30.2727C161.838 30.0227 162.037 29.7017 162.043 29.3097C162.037 28.9801 161.898 28.7102 161.625 28.5C161.352 28.2841 160.932 28.1193 160.364 28.0057L158.097 27.554C156.818 27.2983 155.866 26.8551 155.241 26.2244C154.622 25.5937 154.312 24.7898 154.312 23.8125C154.312 22.9716 154.54 22.2472 154.994 21.6392C155.455 21.0312 156.099 20.5625 156.929 20.233C157.764 19.9034 158.741 19.7386 159.861 19.7386C161.514 19.7386 162.815 20.0881 163.764 20.7869C164.719 21.4858 165.276 22.4375 165.435 23.642Z" fill="white"/>
</svg>
