<svg width="151" height="48" viewBox="0 0 151 48" fill="none" xmlns="http://www.w3.org/2000/svg">
<rect x="0.599609" y="19.2002" width="9.59998" height="9.59999" fill="#099250"/>
<rect x="31.4004" y="28.7998" width="9.6" height="9.59999" transform="rotate(180 31.4004 28.7998)" fill="#099250"/>
<path opacity="0.2" d="M10.1992 19.1996L21.7992 9.59961V19.1996L10.1992 28.7996V19.1996Z" fill="#099250"/>
<path opacity="0.5" d="M21.7988 28.8004L10.1988 38.4004L10.1988 28.8004L21.7988 19.2004L21.7988 28.8004Z" fill="#099250"/>
<path opacity="0.6" d="M0.599609 19.2L21.7996 0V9.59999L10.1996 19.2H0.599609Z" fill="#099250"/>
<path opacity="0.7" d="M31.4004 28.8L10.2004 48L10.2004 38.4L21.8004 28.8L31.4004 28.8Z" fill="#099250"/>
<path d="M50.9858 20.5653C50.9176 19.8778 50.625 19.3437 50.108 18.9631C49.5909 18.5824 48.8892 18.392 48.0028 18.392C47.4006 18.392 46.892 18.4773 46.4773 18.6477C46.0625 18.8125 45.7443 19.0426 45.5227 19.3381C45.3068 19.6335 45.1989 19.9688 45.1989 20.3438C45.1875 20.6562 45.2528 20.929 45.3949 21.1619C45.5426 21.3949 45.7443 21.5966 46 21.767C46.2557 21.9318 46.5511 22.0767 46.8864 22.2017C47.2216 22.321 47.5795 22.4233 47.9602 22.5085L49.5284 22.8835C50.2898 23.054 50.9886 23.2812 51.625 23.5653C52.2614 23.8494 52.8125 24.1989 53.2784 24.6136C53.7443 25.0284 54.1051 25.517 54.3608 26.0795C54.6222 26.642 54.7557 27.2869 54.7614 28.0142C54.7557 29.0824 54.483 30.0085 53.9432 30.7926C53.4091 31.571 52.6364 32.1761 51.625 32.608C50.6193 33.0341 49.4063 33.2472 47.9858 33.2472C46.5767 33.2472 45.3494 33.0312 44.304 32.5994C43.2642 32.1676 42.4517 31.5284 41.8665 30.6818C41.2869 29.8295 40.983 28.7756 40.9545 27.5199H44.5256C44.5653 28.1051 44.733 28.5937 45.0284 28.9858C45.3295 29.3722 45.7301 29.6648 46.2301 29.8636C46.7358 30.0568 47.3068 30.1534 47.9432 30.1534C48.5682 30.1534 49.1108 30.0625 49.571 29.8807C50.0369 29.6989 50.3977 29.446 50.6534 29.1222C50.9091 28.7983 51.0369 28.4261 51.0369 28.0057C51.0369 27.6136 50.9205 27.2841 50.6875 27.017C50.4602 26.75 50.125 26.5227 49.6818 26.3352C49.2443 26.1477 48.7074 25.9773 48.071 25.8239L46.1705 25.3466C44.6989 24.9886 43.5369 24.429 42.6847 23.6676C41.8324 22.9062 41.4091 21.8807 41.4148 20.5909C41.4091 19.5341 41.6903 18.6108 42.2585 17.821C42.8324 17.0312 43.6193 16.4148 44.6193 15.9716C45.6193 15.5284 46.7557 15.3068 48.0284 15.3068C49.3239 15.3068 50.4545 15.5284 51.4205 15.9716C52.392 16.4148 53.1477 17.0312 53.6875 17.821C54.2273 18.6108 54.5057 19.5256 54.5227 20.5653H50.9858ZM57.1754 33V19.9091H60.8061V33H57.1754ZM58.9993 18.2216C58.4595 18.2216 57.9964 18.0426 57.6101 17.6847C57.2294 17.321 57.0391 16.8864 57.0391 16.3807C57.0391 15.8807 57.2294 15.4517 57.6101 15.0938C57.9964 14.7301 58.4595 14.5483 58.9993 14.5483C59.5391 14.5483 59.9993 14.7301 60.38 15.0938C60.7663 15.4517 60.9595 15.8807 60.9595 16.3807C60.9595 16.8864 60.7663 17.321 60.38 17.6847C59.9993 18.0426 59.5391 18.2216 58.9993 18.2216ZM74.6065 23.642L71.2827 23.8466C71.2259 23.5625 71.1037 23.3068 70.9162 23.0795C70.7287 22.8466 70.4815 22.6619 70.1747 22.5256C69.8736 22.3835 69.5128 22.3125 69.0923 22.3125C68.5298 22.3125 68.0554 22.4318 67.669 22.6705C67.2827 22.9034 67.0895 23.2159 67.0895 23.608C67.0895 23.9205 67.2145 24.1847 67.4645 24.4006C67.7145 24.6165 68.1435 24.7898 68.7514 24.9205L71.1207 25.3977C72.3935 25.6591 73.3423 26.0795 73.9673 26.6591C74.5923 27.2386 74.9048 28 74.9048 28.9432C74.9048 29.8011 74.652 30.554 74.1463 31.2017C73.6463 31.8494 72.9588 32.3551 72.0838 32.7188C71.2145 33.0767 70.2116 33.2557 69.0753 33.2557C67.3423 33.2557 65.9616 32.8949 64.9332 32.1733C63.9105 31.446 63.3111 30.4574 63.1349 29.2074L66.706 29.0199C66.8139 29.5483 67.0753 29.9517 67.4901 30.2301C67.9048 30.5028 68.4361 30.6392 69.0838 30.6392C69.7202 30.6392 70.2315 30.517 70.6179 30.2727C71.0099 30.0227 71.2088 29.7017 71.2145 29.3097C71.2088 28.9801 71.0696 28.7102 70.7969 28.5C70.5241 28.2841 70.1037 28.1193 69.5355 28.0057L67.2685 27.554C65.9901 27.2983 65.0384 26.8551 64.4134 26.2244C63.794 25.5937 63.4844 24.7898 63.4844 23.8125C63.4844 22.9716 63.7116 22.2472 64.1662 21.6392C64.6264 21.0312 65.2713 20.5625 66.1009 20.233C66.9361 19.9034 67.9134 19.7386 69.0327 19.7386C70.6861 19.7386 71.9872 20.0881 72.9361 20.7869C73.8906 21.4858 74.4474 22.4375 74.6065 23.642ZM79.4325 37.9091C78.9723 37.9091 78.5405 37.8722 78.1371 37.7983C77.7393 37.7301 77.4098 37.642 77.1484 37.5341L77.9666 34.8239C78.3928 34.9545 78.7763 35.0256 79.1172 35.0369C79.4638 35.0483 79.7621 34.9688 80.0121 34.7983C80.2678 34.6278 80.4751 34.3381 80.6342 33.929L80.8473 33.375L76.1513 19.9091H79.9695L82.6797 29.5227H82.8161L85.5518 19.9091H89.3956L84.3075 34.4148C84.0632 35.1193 83.7308 35.733 83.3104 36.2557C82.8956 36.7841 82.37 37.1903 81.7337 37.4744C81.0973 37.7642 80.3303 37.9091 79.4325 37.9091ZM91.2536 37.9091V19.9091H94.8331V22.108H94.995C95.1541 21.7557 95.3842 21.3977 95.6854 21.0341C95.9922 20.6648 96.3899 20.358 96.8786 20.1136C97.3729 19.8636 97.9865 19.7386 98.7195 19.7386C99.674 19.7386 100.555 19.9886 101.362 20.4886C102.168 20.983 102.813 21.7301 103.296 22.7301C103.779 23.7244 104.021 24.9716 104.021 26.4716C104.021 27.9318 103.785 29.1648 103.313 30.1705C102.847 31.1705 102.211 31.929 101.404 32.446C100.603 32.9574 99.7053 33.2131 98.7109 33.2131C98.0064 33.2131 97.407 33.0966 96.9126 32.8636C96.424 32.6307 96.0234 32.3381 95.7109 31.9858C95.3984 31.6278 95.1598 31.267 94.995 30.9034H94.8842V37.9091H91.2536ZM94.8075 26.4545C94.8075 27.233 94.9155 27.9119 95.1314 28.4915C95.3473 29.071 95.6598 29.5227 96.0689 29.8466C96.478 30.1648 96.9751 30.3239 97.5604 30.3239C98.1513 30.3239 98.6513 30.1619 99.0604 29.8381C99.4695 29.5085 99.7791 29.054 99.9893 28.4744C100.205 27.8892 100.313 27.2159 100.313 26.4545C100.313 25.6989 100.208 25.0341 99.9979 24.4602C99.7876 23.8864 99.478 23.4375 99.0689 23.1136C98.6598 22.7898 98.157 22.6278 97.5604 22.6278C96.9695 22.6278 96.4695 22.7841 96.0604 23.0966C95.657 23.4091 95.3473 23.8523 95.1314 24.4261C94.9155 25 94.8075 25.6761 94.8075 26.4545ZM110.072 25.4318V33H106.441V15.5455H109.969V22.2188H110.123C110.418 21.446 110.896 20.8409 111.555 20.4034C112.214 19.9602 113.04 19.7386 114.035 19.7386C114.944 19.7386 115.737 19.9375 116.413 20.3352C117.094 20.7273 117.623 21.2926 117.998 22.0312C118.379 22.7642 118.566 23.642 118.56 24.6648V33H114.93V25.3125C114.935 24.5057 114.731 23.8778 114.316 23.429C113.907 22.9801 113.333 22.7557 112.594 22.7557C112.1 22.7557 111.663 22.8608 111.282 23.071C110.907 23.2812 110.612 23.5881 110.396 23.9915C110.185 24.3892 110.077 24.8693 110.072 25.4318ZM129.812 27.4261V19.9091H133.443V33H129.957V30.6222H129.821C129.526 31.3892 129.034 32.0057 128.347 32.4716C127.665 32.9375 126.832 33.1705 125.849 33.1705C124.974 33.1705 124.205 32.9716 123.54 32.5739C122.875 32.1761 122.355 31.6108 121.98 30.8778C121.611 30.1449 121.423 29.267 121.418 28.2443V19.9091H125.048V27.5966C125.054 28.3693 125.261 28.9801 125.67 29.429C126.08 29.8778 126.628 30.1023 127.315 30.1023C127.753 30.1023 128.162 30.0028 128.543 29.804C128.923 29.5994 129.23 29.2983 129.463 28.9006C129.702 28.5028 129.818 28.0114 129.812 27.4261ZM147.239 23.642L143.915 23.8466C143.859 23.5625 143.737 23.3068 143.549 23.0795C143.362 22.8466 143.114 22.6619 142.808 22.5256C142.506 22.3835 142.146 22.3125 141.725 22.3125C141.163 22.3125 140.688 22.4318 140.302 22.6705C139.915 22.9034 139.722 23.2159 139.722 23.608C139.722 23.9205 139.847 24.1847 140.097 24.4006C140.347 24.6165 140.776 24.7898 141.384 24.9205L143.754 25.3977C145.026 25.6591 145.975 26.0795 146.6 26.6591C147.225 27.2386 147.538 28 147.538 28.9432C147.538 29.8011 147.285 30.554 146.779 31.2017C146.279 31.8494 145.592 32.3551 144.717 32.7188C143.847 33.0767 142.844 33.2557 141.708 33.2557C139.975 33.2557 138.594 32.8949 137.566 32.1733C136.543 31.446 135.944 30.4574 135.768 29.2074L139.339 29.0199C139.447 29.5483 139.708 29.9517 140.123 30.2301C140.538 30.5028 141.069 30.6392 141.717 30.6392C142.353 30.6392 142.864 30.517 143.251 30.2727C143.643 30.0227 143.842 29.7017 143.847 29.3097C143.842 28.9801 143.702 28.7102 143.43 28.5C143.157 28.2841 142.737 28.1193 142.168 28.0057L139.901 27.554C138.623 27.2983 137.671 26.8551 137.046 26.2244C136.427 25.5937 136.117 24.7898 136.117 23.8125C136.117 22.9716 136.344 22.2472 136.799 21.6392C137.259 21.0312 137.904 20.5625 138.734 20.233C139.569 19.9034 140.546 19.7386 141.665 19.7386C143.319 19.7386 144.62 20.0881 145.569 20.7869C146.523 21.4858 147.08 22.4375 147.239 23.642Z" fill="white"/>
</svg>
