<svg width="144" height="48" viewBox="0 0 144 48" fill="none" xmlns="http://www.w3.org/2000/svg">
<path fill-rule="evenodd" clip-rule="evenodd" d="M26.6797 2.01388C27.1267 1.78062 27.6611 1.7876 28.1019 2.03247L38.2284 7.65748C38.7046 7.92204 39 8.42403 39 8.96885L38.9993 20.2184C38.9993 20.7772 38.6886 21.2897 38.1932 21.5482L12.3196 35.0478C11.8725 35.2811 11.3381 35.2741 10.8973 35.0291L0.773445 29.4043C0.297359 29.1397 0.00205758 28.638 0.00196257 28.0933L2.29477e-08 16.8436C-9.74903e-05 16.2847 0.310589 15.7721 0.806135 15.5135L26.6797 2.01388ZM3.00016 17.7526L3.00153 25.6188L25.8753 13.6842L25.874 5.81805L3.00016 17.7526ZM28.874 5.89309L28.8753 13.7108L35.9995 17.669L35.9999 9.85139L28.874 5.89309ZM34.3361 20.1768L27.3531 16.297L4.66512 28.1346L11.6481 32.0144L34.3361 20.1768Z" fill="#1570EF"/>
<path opacity="0.5" fill-rule="evenodd" clip-rule="evenodd" d="M12.3203 46.2986C11.8733 46.5319 11.3389 46.5249 10.8981 46.28L0.771626 40.655C0.295353 40.3905 -2.61276e-05 39.8885 8.25229e-06 39.3436L0.000707325 28.0941C0.000741706 27.5353 0.311407 27.0228 0.806841 26.7643L26.6804 13.2647C27.1275 13.0314 27.6619 13.0384 28.1028 13.2834L38.2266 18.9082C38.7026 19.1728 38.9979 19.6745 38.998 20.2192L39 31.4689C39.0001 32.0278 38.6894 32.5404 38.1939 32.799L12.3203 46.2986ZM35.9998 30.5599L35.9985 22.6937L13.1247 34.6282L13.126 42.4944L35.9998 30.5599ZM10.126 42.4194L10.1247 34.6017L3.00055 30.6435L3.00006 38.4611L10.126 42.4194ZM4.66387 28.1357L11.6469 32.0155L34.3349 20.1779L27.3519 16.2981L4.66387 28.1357Z" fill="#1570EF"/>
<path d="M57.9858 20.5653C57.9176 19.8778 57.625 19.3437 57.108 18.9631C56.5909 18.5824 55.8892 18.392 55.0028 18.392C54.4006 18.392 53.892 18.4773 53.4773 18.6477C53.0625 18.8125 52.7443 19.0426 52.5227 19.3381C52.3068 19.6335 52.1989 19.9688 52.1989 20.3438C52.1875 20.6562 52.2528 20.929 52.3949 21.1619C52.5426 21.3949 52.7443 21.5966 53 21.767C53.2557 21.9318 53.5511 22.0767 53.8864 22.2017C54.2216 22.321 54.5795 22.4233 54.9602 22.5085L56.5284 22.8835C57.2898 23.054 57.9886 23.2812 58.625 23.5653C59.2614 23.8494 59.8125 24.1989 60.2784 24.6136C60.7443 25.0284 61.1051 25.517 61.3608 26.0795C61.6222 26.642 61.7557 27.2869 61.7614 28.0142C61.7557 29.0824 61.483 30.0085 60.9432 30.7926C60.4091 31.571 59.6364 32.1761 58.625 32.608C57.6193 33.0341 56.4063 33.2472 54.9858 33.2472C53.5767 33.2472 52.3494 33.0312 51.304 32.5994C50.2642 32.1676 49.4517 31.5284 48.8665 30.6818C48.2869 29.8295 47.983 28.7756 47.9545 27.5199H51.5256C51.5653 28.1051 51.733 28.5937 52.0284 28.9858C52.3295 29.3722 52.7301 29.6648 53.2301 29.8636C53.7358 30.0568 54.3068 30.1534 54.9432 30.1534C55.5682 30.1534 56.1108 30.0625 56.571 29.8807C57.0369 29.6989 57.3977 29.446 57.6534 29.1222C57.9091 28.7983 58.0369 28.4261 58.0369 28.0057C58.0369 27.6136 57.9205 27.2841 57.6875 27.017C57.4602 26.75 57.125 26.5227 56.6818 26.3352C56.2443 26.1477 55.7074 25.9773 55.071 25.8239L53.1705 25.3466C51.6989 24.9886 50.5369 24.429 49.6847 23.6676C48.8324 22.9062 48.4091 21.8807 48.4148 20.5909C48.4091 19.5341 48.6903 18.6108 49.2585 17.821C49.8324 17.0312 50.6193 16.4148 51.6193 15.9716C52.6193 15.5284 53.7557 15.3068 55.0284 15.3068C56.3239 15.3068 57.4545 15.5284 58.4205 15.9716C59.392 16.4148 60.1477 17.0312 60.6875 17.821C61.2273 18.6108 61.5057 19.5256 61.5227 20.5653H57.9858ZM71.1385 19.9091V22.6364H63.255V19.9091H71.1385ZM65.0447 16.7727H68.6754V28.9773C68.6754 29.3125 68.7266 29.5739 68.8288 29.7614C68.9311 29.9432 69.0732 30.071 69.255 30.1449C69.4425 30.2187 69.6584 30.2557 69.9027 30.2557C70.0732 30.2557 70.2436 30.2415 70.4141 30.2131C70.5845 30.179 70.7152 30.1534 70.8061 30.1364L71.3771 32.8381C71.1953 32.8949 70.9396 32.9602 70.6101 33.0341C70.2805 33.1136 69.88 33.1619 69.4084 33.179C68.5334 33.2131 67.7663 33.0966 67.1072 32.8295C66.4538 32.5625 65.9453 32.1477 65.5817 31.5852C65.218 31.0227 65.0391 30.3125 65.0447 29.4545V16.7727ZM77.2365 33.2472C76.4013 33.2472 75.657 33.1023 75.0036 32.8125C74.3501 32.517 73.8331 32.0824 73.4524 31.5085C73.0774 30.929 72.8899 30.2074 72.8899 29.3438C72.8899 28.6165 73.0234 28.0057 73.2905 27.5114C73.5575 27.017 73.9212 26.6193 74.3814 26.3182C74.8416 26.017 75.3643 25.7898 75.9496 25.6364C76.5405 25.483 77.1598 25.375 77.8075 25.3125C78.5689 25.233 79.1825 25.1591 79.6484 25.0909C80.1143 25.017 80.4524 24.9091 80.6626 24.767C80.8729 24.625 80.978 24.4148 80.978 24.1364V24.0852C80.978 23.5455 80.8075 23.1278 80.4666 22.8324C80.1314 22.5369 79.6541 22.3892 79.0348 22.3892C78.3814 22.3892 77.8615 22.5341 77.4751 22.8239C77.0888 23.108 76.8331 23.4659 76.7081 23.8977L73.3501 23.625C73.5206 22.8295 73.8558 22.142 74.3558 21.5625C74.8558 20.9773 75.5007 20.5284 76.2905 20.2159C77.0859 19.8977 78.0064 19.7386 79.0518 19.7386C79.7791 19.7386 80.4751 19.8239 81.1399 19.9943C81.8104 20.1648 82.4041 20.429 82.9212 20.7869C83.4439 21.1449 83.8558 21.6051 84.157 22.1676C84.4581 22.7244 84.6087 23.392 84.6087 24.1705V33H81.1655V31.1847H81.0632C80.853 31.5938 80.5717 31.9545 80.2195 32.267C79.8672 32.5739 79.4439 32.8153 78.9496 32.9915C78.4553 33.1619 77.8842 33.2472 77.2365 33.2472ZM78.2763 30.7415C78.8104 30.7415 79.282 30.6364 79.6911 30.4261C80.1001 30.2102 80.4212 29.9205 80.6541 29.5568C80.8871 29.1932 81.0036 28.7812 81.0036 28.321V26.9318C80.8899 27.0057 80.7337 27.0739 80.5348 27.1364C80.3416 27.1932 80.1229 27.2472 79.8786 27.2983C79.6342 27.3437 79.3899 27.3864 79.1456 27.4261C78.9013 27.4602 78.6797 27.4915 78.4808 27.5199C78.0547 27.5824 77.6825 27.6818 77.3643 27.8182C77.0462 27.9545 76.799 28.1392 76.6229 28.3722C76.4467 28.5994 76.3587 28.8835 76.3587 29.2244C76.3587 29.7188 76.5376 30.0966 76.8956 30.358C77.2592 30.6136 77.7195 30.7415 78.2763 30.7415ZM93.3402 33.2557C91.9993 33.2557 90.8459 32.9716 89.88 32.4034C88.9197 31.8295 88.1811 31.0341 87.6641 30.017C87.1527 29 86.897 27.8295 86.897 26.5057C86.897 25.1648 87.1555 23.9886 87.6726 22.9773C88.1953 21.9602 88.9368 21.1676 89.897 20.5994C90.8572 20.0256 91.9993 19.7386 93.3232 19.7386C94.4652 19.7386 95.4652 19.946 96.3232 20.3608C97.1811 20.7756 97.8601 21.358 98.3601 22.108C98.8601 22.858 99.1357 23.7386 99.1868 24.75H95.7607C95.6641 24.0966 95.4084 23.571 94.9936 23.1733C94.5845 22.7699 94.0476 22.5682 93.3828 22.5682C92.8203 22.5682 92.3288 22.7216 91.9084 23.0284C91.4936 23.3295 91.1697 23.7699 90.9368 24.3494C90.7038 24.929 90.5874 25.6307 90.5874 26.4545C90.5874 27.2898 90.701 28 90.9283 28.5852C91.1612 29.1705 91.4879 29.6165 91.9084 29.9233C92.3288 30.2301 92.8203 30.3835 93.3828 30.3835C93.7976 30.3835 94.1697 30.2983 94.4993 30.1278C94.8345 29.9574 95.1101 29.7102 95.326 29.3864C95.5476 29.0568 95.6925 28.6619 95.7607 28.2017H99.1868C99.13 29.2017 98.8572 30.0824 98.3686 30.8438C97.8857 31.5994 97.218 32.1903 96.3658 32.6165C95.5135 33.0426 94.505 33.2557 93.3402 33.2557ZM104.801 29.233L104.81 24.8778H105.338L109.531 19.9091H113.699L108.065 26.4886H107.205L104.801 29.233ZM101.511 33V15.5455H105.142V33H101.511ZM109.693 33L105.841 27.2983L108.261 24.733L113.946 33H109.693ZM120.907 33.2557C119.56 33.2557 118.401 32.983 117.43 32.4375C116.464 31.8864 115.719 31.108 115.197 30.1023C114.674 29.0909 114.413 27.8949 114.413 26.5142C114.413 25.1676 114.674 23.9858 115.197 22.9688C115.719 21.9517 116.455 21.1591 117.404 20.5909C118.359 20.0227 119.478 19.7386 120.762 19.7386C121.626 19.7386 122.43 19.8778 123.174 20.1562C123.924 20.429 124.577 20.8409 125.134 21.392C125.697 21.9432 126.134 22.6364 126.447 23.4716C126.759 24.3011 126.915 25.2727 126.915 26.3864V27.3835H115.862V25.1335H123.498C123.498 24.6108 123.384 24.1477 123.157 23.7443C122.93 23.3409 122.614 23.0256 122.211 22.7983C121.813 22.5653 121.35 22.4489 120.822 22.4489C120.271 22.4489 119.782 22.5767 119.356 22.8324C118.935 23.0824 118.606 23.4205 118.367 23.8466C118.129 24.267 118.006 24.7358 118.001 25.2528V27.392C118.001 28.0398 118.12 28.5994 118.359 29.071C118.603 29.5426 118.947 29.9062 119.39 30.1619C119.833 30.4176 120.359 30.5455 120.967 30.5455C121.37 30.5455 121.739 30.4886 122.075 30.375C122.41 30.2614 122.697 30.0909 122.935 29.8636C123.174 29.6364 123.356 29.358 123.481 29.0284L126.839 29.25C126.668 30.0568 126.319 30.7614 125.79 31.3636C125.268 31.9602 124.592 32.4261 123.762 32.7614C122.938 33.0909 121.987 33.2557 120.907 33.2557ZM134.109 33.2131C133.114 33.2131 132.214 32.9574 131.407 32.446C130.606 31.929 129.969 31.1705 129.498 30.1705C129.032 29.1648 128.799 27.9318 128.799 26.4716C128.799 24.9716 129.04 23.7244 129.523 22.7301C130.006 21.7301 130.648 20.983 131.45 20.4886C132.256 19.9886 133.14 19.7386 134.1 19.7386C134.833 19.7386 135.444 19.8636 135.933 20.1136C136.427 20.358 136.825 20.6648 137.126 21.0341C137.433 21.3977 137.665 21.7557 137.825 22.108H137.935V15.5455H141.558V33H137.978V30.9034H137.825C137.654 31.267 137.413 31.6278 137.1 31.9858C136.793 32.3381 136.393 32.6307 135.898 32.8636C135.41 33.0966 134.813 33.2131 134.109 33.2131ZM135.259 30.3239C135.844 30.3239 136.339 30.1648 136.742 29.8466C137.151 29.5227 137.464 29.071 137.68 28.4915C137.901 27.9119 138.012 27.233 138.012 26.4545C138.012 25.6761 137.904 25 137.688 24.4261C137.472 23.8523 137.16 23.4091 136.751 23.0966C136.342 22.7841 135.844 22.6278 135.259 22.6278C134.663 22.6278 134.16 22.7898 133.751 23.1136C133.342 23.4375 133.032 23.8864 132.822 24.4602C132.612 25.0341 132.506 25.6989 132.506 26.4545C132.506 27.2159 132.612 27.8892 132.822 28.4744C133.038 29.054 133.347 29.5085 133.751 29.8381C134.16 30.1619 134.663 30.3239 135.259 30.3239Z" fill="white"/>
</svg>
